<svg width="64" height="64" viewBox="0 0 64 64" fill="none" xmlns="http://www.w3.org/2000/svg">
  <mask id="center-circle-mask">
    <rect x="0" y="0" width="64" height="64" fill="white"></rect>
    <circle cx="29" cy="32" r="9.030000000000001" fill="black"></circle>
    <circle cx="15.560000000000006" cy="8.721237146274287" r="9.030000000000001" fill="black"></circle>
    <circle cx="15.559999999999988" cy="55.27876285372571" r="9.030000000000001" fill="black"></circle>
    <circle cx="55.879999999999995" cy="32" r="9.030000000000001" fill="black"></circle>
  </mask>
  <rect x="0" y="0" width="64" height="64" fill="transparent"></rect>
  <circle cx="29" cy="32" r="7" fill="#CBD5E0"></circle>
  <circle cx="15.560000000000006" cy="8.721237146274287" r="7" fill="#F56565"></circle>
  <circle cx="15.559999999999988" cy="55.27876285372571" r="7" fill="#38B2AC"></circle>
  <circle cx="55.879999999999995" cy="32" r="7" fill="#ECC94B"></circle>
  <path mask="url(#center-circle-mask)" rx="3.5" fill="#CBD5E0"
    d="M 32.03108891324553 30.25 L 25.968911086754463 33.75 L 18.928911086754468 21.556362314715102 A 3.5 3.5 0 0 1 24.991088913245537 18.056362314715102 Z">
  </path>
  <path mask="url(#center-circle-mask)" rx="3.5" fill="#CBD5E0"
    d="M 25.968911086754467 30.25 L 32.03108891324553 33.75 L 24.991088913245527 45.9436376852849 A 3.5 3.5 0 0 1 18.92891108675446 42.4436376852849 Z">
  </path>
  <path mask="url(#center-circle-mask)" rx="3.5" fill="#CBD5E0"
    d="M 29 35.5 L 29 28.5 L 43.08 28.5 A 3.5 3.5 0 0 1 43.08 35.5 Z"></path>
  <path mask="url(#center-circle-mask)" rx="3.5" fill="#F56565"
    d="M 15.560000000000006 12.221237146274287 L 15.560000000000006 5.221237146274287 L 36.68000000000001 5.221237146274287 A 3.5 3.5 0 0 1 36.68000000000001 12.221237146274287 Z">
  </path>
  <path mask="url(#center-circle-mask)" rx="3.5" fill="#F56565"
    d="M 12.528911086754471 6.971237146274286 L 18.591088913245542 10.471237146274289 L 8.031088913245533 28.76169367420163 A 3.5 3.5 0 0 1 1.9689110867544617 25.26169367420163 Z">
  </path>
  <path mask="url(#center-circle-mask)" rx="3.5" fill="#38B2AC"
    d="M 18.591088913245525 53.52876285372571 L 12.528911086754452 57.02876285372571 L 1.9689110867544564 38.73830632579836 A 3.5 3.5 0 0 1 8.03108891324553 35.23830632579836 Z">
  </path>
  <path mask="url(#center-circle-mask)" rx="3.5" fill="#38B2AC"
    d="M 15.559999999999988 58.77876285372571 L 15.559999999999988 51.77876285372571 L 36.67999999999999 51.77876285372571 A 3.5 3.5 0 0 1 36.67999999999999 58.77876285372571 Z">
  </path>
  <path mask="url(#center-circle-mask)" rx="3.5" fill="#ECC94B"
    d="M 52.84891108675446 30.25 L 58.91108891324553 33.75 L 48.35108891324552 52.04045652792735 A 3.5 3.5 0 0 1 42.28891108675445 48.54045652792735 Z">
  </path>
  <path mask="url(#center-circle-mask)" rx="3.5" fill="#ECC94B"
    d="M 58.91108891324553 30.25 L 52.84891108675446 33.75 L 42.28891108675447 15.459543472072653 A 3.5 3.5 0 0 1 48.35108891324553 11.959543472072653 Z">
  </path>
</svg>