<?xml version="1.0" encoding="UTF-8" standalone="no"?>
<!-- Created with Inkscape (http://www.inkscape.org/) -->

<svg
   xmlns:dc="http://purl.org/dc/elements/1.1/"
   xmlns:cc="http://creativecommons.org/ns#"
   xmlns:rdf="http://www.w3.org/1999/02/22-rdf-syntax-ns#"
   xmlns:svg="http://www.w3.org/2000/svg"
   xmlns="http://www.w3.org/2000/svg"
   xmlns:sodipodi="http://sodipodi.sourceforge.net/DTD/sodipodi-0.dtd"
   xmlns:inkscape="http://www.inkscape.org/namespaces/inkscape"
   width="52.916664mm"
   height="52.916664mm"
   viewBox="0 0 52.916664 52.916664"
   version="1.1"
   id="svg10586"
   inkscape:version="0.92.5 (2060ec1f9f, 2020-04-08)"
   sodipodi:docname="orange.svg">
  <defs
     id="defs10580">
    <clipPath
       clipPathUnits="userSpaceOnUse"
       id="clipPath4499">
      <path
         d="M 0,450 H 450 V 0 H 0 Z"
         id="path4497"
         inkscape:connector-curvature="0" />
    </clipPath>
    <clipPath
       clipPathUnits="userSpaceOnUse"
       id="clipPath4475">
      <path
         d="M 68.552,94.703 C 63.095,93.619 54.696,92.161 46.939,91.695 v 0 C 42.632,91.433 38.521,91.48 35.232,92.077 v 0 C 33.615,88.78 32.943,85.004 33.484,81.136 v 0 C 34.979,70.484 45.09,63.102 56.078,64.634 v 0 c 10.989,1.542 18.688,11.419 17.203,22.061 v 0 c -0.431,3.093 -1.589,5.906 -3.29,8.307 v 0 C 69.543,94.91 69.057,94.806 68.552,94.703"
         id="path4473"
         inkscape:connector-curvature="0" />
    </clipPath>
    <radialGradient
       fx="0"
       fy="0"
       cx="0"
       cy="0"
       r="1"
       gradientUnits="userSpaceOnUse"
       gradientTransform="matrix(17.845137,0,0,-17.845137,53.382004,79.717583)"
       spreadMethod="pad"
       id="radialGradient4489">
      <stop
         style="stop-opacity:1;stop-color:#faffff"
         offset="0"
         id="stop4481" />
      <stop
         style="stop-opacity:1;stop-color:#faffff"
         offset="0.434318"
         id="stop4483" />
      <stop
         style="stop-opacity:1;stop-color:#faffff"
         offset="0.80364196"
         id="stop4485" />
      <stop
         style="stop-opacity:1;stop-color:#e1eded"
         offset="1"
         id="stop4487" />
    </radialGradient>
    <clipPath
       clipPathUnits="userSpaceOnUse"
       id="clipPath4443">
      <path
         d="M 0,450 H 450 V 0 H 0 Z"
         id="path4441"
         inkscape:connector-curvature="0" />
    </clipPath>
    <clipPath
       clipPathUnits="userSpaceOnUse"
       id="clipPath4459">
      <path
         d="M 32.146,104.643 H 74.9485 V 60.8507 H 32.146 Z"
         id="path4457"
         inkscape:connector-curvature="0" />
    </clipPath>
    <clipPath
       clipPathUnits="userSpaceOnUse"
       id="clipPath4419">
      <path
         d="m 75.654,89.52 c 0,-10.75 8.994,-19.467 20.089,-19.467 v 0 c 11.095,0 20.09,8.717 20.09,19.467 v 0 c 0,10.752 -8.995,19.467 -20.09,19.467 v 0 c -11.095,0 -20.089,-8.715 -20.089,-19.467"
         id="path4417"
         inkscape:connector-curvature="0" />
    </clipPath>
    <radialGradient
       fx="0"
       fy="0"
       cx="0"
       cy="0"
       r="1"
       gradientUnits="userSpaceOnUse"
       gradientTransform="matrix(19.780453,0,0,-19.780453,95.74324,89.520348)"
       spreadMethod="pad"
       id="radialGradient4433">
      <stop
         style="stop-opacity:1;stop-color:#faffff"
         offset="0"
         id="stop4425" />
      <stop
         style="stop-opacity:1;stop-color:#faffff"
         offset="0.434318"
         id="stop4427" />
      <stop
         style="stop-opacity:1;stop-color:#faffff"
         offset="0.80364196"
         id="stop4429" />
      <stop
         style="stop-opacity:1;stop-color:#e1eded"
         offset="1"
         id="stop4431" />
    </radialGradient>
    <clipPath
       clipPathUnits="userSpaceOnUse"
       id="clipPath4403">
      <path
         d="M 74.5052,111.651 H 117.308 V 67.8586 H 74.5052 Z"
         id="path4401"
         inkscape:connector-curvature="0" />
    </clipPath>
    <clipPath
       clipPathUnits="userSpaceOnUse"
       id="clipPath3833">
      <path
         d="M 0,0 H 150 V 150 H 0 Z"
         id="path3831"
         inkscape:connector-curvature="0" />
    </clipPath>
    <radialGradient
       fx="0"
       fy="0"
       cx="0"
       cy="0"
       r="1"
       gradientUnits="userSpaceOnUse"
       gradientTransform="matrix(99.792,0,0,-99.792,75,75)"
       spreadMethod="pad"
       id="radialGradient3847">
      <stop
         style="stop-opacity:1;stop-color:#f7693e"
         offset="0"
         id="stop3839" />
      <stop
         style="stop-opacity:1;stop-color:#f7693e"
         offset="0.351649"
         id="stop3841" />
      <stop
         style="stop-opacity:1;stop-color:#f7693e"
         offset="0.61042686"
         id="stop3843" />
      <stop
         style="stop-opacity:1;stop-color:#f03d3c"
         offset="1"
         id="stop3845" />
    </radialGradient>
  </defs>
  <sodipodi:namedview
     id="base"
     pagecolor="#ffffff"
     bordercolor="#666666"
     borderopacity="1.0"
     inkscape:pageopacity="0.0"
     inkscape:pageshadow="2"
     inkscape:zoom="1.5320635"
     inkscape:cx="173.74696"
     inkscape:cy="94.448831"
     inkscape:document-units="mm"
     inkscape:current-layer="layer1"
     showgrid="false"
     inkscape:window-width="1801"
     inkscape:window-height="1286"
     inkscape:window-x="1594"
     inkscape:window-y="378"
     inkscape:window-maximized="0" />
  <metadata
     id="metadata10583">
    <rdf:RDF>
      <cc:Work
         rdf:about="">
        <dc:format>image/svg+xml</dc:format>
        <dc:type
           rdf:resource="http://purl.org/dc/dcmitype/StillImage" />
        <dc:title />
      </cc:Work>
    </rdf:RDF>
  </metadata>
  <g
     inkscape:label="Layer 1"
     inkscape:groupmode="layer"
     id="layer1"
     transform="translate(-59.720239,-109.52381)">
    <g
       transform="matrix(0.35277777,0,0,-0.35277777,59.720239,162.44048)"
       id="g3827">
      <g
         id="g3829"
         clip-path="url(#clipPath3833)">
        <g
           id="g3835">
          <g
             id="g3837">
            <path
               d="M 0,0 H 150 V 150 H 0 Z"
               style="fill:url(#radialGradient3847);stroke:none"
               id="path3849"
               inkscape:connector-curvature="0" />
          </g>
        </g>
      </g>
    </g>
    <g
       transform="matrix(0.35277777,0,0,-0.35277777,59.720239,162.44048)"
       id="g4397">
      <g
         id="g4399" />
      <g
         id="g4411">
        <g
           clip-path="url(#clipPath4403)"
           id="g4409"
           style="opacity:0.30000299">
          <g
             transform="translate(74.7241,86.793)"
             id="g4407">
            <path
               d="M 0,0 C 1.676,-11.98 12.518,-20.366 24.216,-18.73 35.915,-17.094 44.04,-6.056 42.365,5.925 40.689,17.905 29.847,26.291 18.148,24.654 6.45,23.019 -1.676,11.979 0,0"
               style="fill:#842221;fill-opacity:1;fill-rule:nonzero;stroke:none"
               id="path4405"
               inkscape:connector-curvature="0" />
          </g>
        </g>
      </g>
    </g>
    <g
       transform="matrix(0.35277777,0,0,-0.35277777,59.720239,162.44048)"
       id="g4413">
      <g
         id="g4415"
         clip-path="url(#clipPath4419)">
        <g
           id="g4421">
          <g
             id="g4423">
            <path
               d="m 75.654,89.52 c 0,-10.75 8.994,-19.467 20.089,-19.467 v 0 c 11.095,0 20.09,8.717 20.09,19.467 v 0 c 0,10.752 -8.995,19.467 -20.09,19.467 v 0 c -11.095,0 -20.089,-8.715 -20.089,-19.467"
               style="fill:url(#radialGradient4433);stroke:none"
               id="path4435"
               inkscape:connector-curvature="0" />
          </g>
        </g>
      </g>
    </g>
    <g
       transform="matrix(0.35277777,0,0,-0.35277777,59.720239,162.44048)"
       id="g4437">
      <g
         id="g4439"
         clip-path="url(#clipPath4443)">
        <g
           id="g4445"
           transform="translate(103.9971,89.832)">
          <path
             d="m 0,0 c 0,-7.418 -6.206,-13.431 -13.86,-13.431 -7.655,0 -13.86,6.013 -13.86,13.431 0,7.417 6.205,13.43 13.86,13.43 C -6.206,13.43 0,7.417 0,0"
             style="fill:#197e34;fill-opacity:1;fill-rule:nonzero;stroke:none"
             id="path4447"
             inkscape:connector-curvature="0" />
        </g>
        <g
           id="g4449"
           transform="translate(89.874,88.8975)">
          <path
             d="m 0,0 c 0,-3.526 -2.95,-6.385 -6.589,-6.385 -3.64,0 -6.59,2.859 -6.59,6.385 0,3.526 2.95,6.385 6.59,6.385 C -2.95,6.385 0,3.526 0,0"
             style="fill:#0d3f1a;fill-opacity:1;fill-rule:nonzero;stroke:none"
             id="path4451"
             inkscape:connector-curvature="0" />
        </g>
        <g
           id="g4453">
          <g
             id="g4455" />
          <g
             id="g4467">
            <g
               clip-path="url(#clipPath4459)"
               id="g4465"
               style="opacity:0.30000299">
              <g
                 transform="translate(32.3647,79.7842)"
                 id="g4463">
                <path
                   d="M 0,0 C 1.676,-11.98 12.518,-20.365 24.216,-18.729 35.915,-17.094 44.041,-6.055 42.365,5.926 40.689,17.906 29.847,26.292 18.148,24.655 6.45,23.02 -1.675,11.98 0,0"
                   style="fill:#842221;fill-opacity:1;fill-rule:nonzero;stroke:none"
                   id="path4461"
                   inkscape:connector-curvature="0" />
              </g>
            </g>
          </g>
        </g>
      </g>
    </g>
    <g
       transform="matrix(0.35277777,0,0,-0.35277777,59.720239,162.44048)"
       id="g4469">
      <g
         id="g4471"
         clip-path="url(#clipPath4475)">
        <g
           id="g4477">
          <g
             id="g4479">
            <path
               d="M 68.552,94.703 C 63.095,93.619 54.696,92.161 46.939,91.695 v 0 C 42.632,91.433 38.521,91.48 35.232,92.077 v 0 C 33.615,88.78 32.943,85.004 33.484,81.136 v 0 C 34.979,70.484 45.09,63.102 56.078,64.634 v 0 c 10.989,1.542 18.688,11.419 17.203,22.061 v 0 c -0.431,3.093 -1.589,5.906 -3.29,8.307 v 0 C 69.543,94.91 69.057,94.806 68.552,94.703"
               style="fill:url(#radialGradient4489);stroke:none"
               id="path4491"
               inkscape:connector-curvature="0" />
          </g>
        </g>
      </g>
    </g>
    <g
       transform="matrix(0.35277777,0,0,-0.35277777,59.720239,162.44048)"
       id="g4493">
      <g
         id="g4495"
         clip-path="url(#clipPath4499)">
        <g
           id="g4501"
           transform="translate(60.75,71.6982)">
          <path
             d="m 0,0 c -7.578,-1.065 -14.558,4.037 -15.585,11.381 -0.431,3.102 0.261,6.101 1.775,8.615 7.755,0.467 16.156,1.925 21.612,3.009 2.149,-1.99 3.635,-4.691 4.065,-7.783 C 12.895,7.877 7.587,1.056 0,0"
             style="fill:#197e34;fill-opacity:1;fill-rule:nonzero;stroke:none"
             id="path4503"
             inkscape:connector-curvature="0" />
        </g>
        <g
           id="g4505"
           transform="translate(59.5742,85.335)">
          <path
             d="m 0,0 c 0.488,-3.492 3.806,-5.915 7.41,-5.41 3.604,0.504 6.13,3.743 5.642,7.235 C 12.563,5.318 9.246,7.74 5.642,7.236 2.038,6.732 -0.488,3.492 0,0"
             style="fill:#0d3f1a;fill-opacity:1;fill-rule:nonzero;stroke:none"
             id="path4507"
             inkscape:connector-curvature="0" />
        </g>
        <g
           id="g4509"
           transform="translate(111.7446,60.5928)">
          <path
             d="m 0,0 c -0.28,-0.177 -0.579,-0.364 -0.897,-0.542 -24.154,5.645 -52.438,-1.906 -70.36,-17.837 -2.223,-0.355 -3.494,-0.542 -3.494,-0.542 0.093,0.485 0.196,0.943 0.299,1.392 2.364,10.39 6.148,11.231 11.025,8.447 0.496,-0.29 1.01,-0.607 1.524,-0.962 0.028,0.7 0.084,1.373 0.177,1.999 1.224,9.213 8.195,11.138 13.399,6.42 0.392,-0.355 0.776,-0.748 1.14,-1.178 0.141,0.608 0.309,1.205 0.486,1.776 2.084,6.531 6.728,10.418 14.894,3.886 0.468,-0.374 0.944,-0.775 1.439,-1.223 0.327,0.569 0.654,1.102 0.981,1.597 5.055,7.55 10.596,5.953 13.568,0.851 0.327,-0.542 0.616,-1.131 0.869,-1.748 0.542,0.626 1.075,1.168 1.597,1.654 C -7.419,9.419 -2.738,6.093 -0.822,2.309 -0.43,1.533 -0.149,0.738 0,0"
             style="fill:#fffcf8;fill-opacity:1;fill-rule:nonzero;stroke:none"
             id="path4511"
             inkscape:connector-curvature="0" />
        </g>
        <g
           id="g4513"
           transform="translate(74.4858,120.9785)">
          <path
             d="M 0,0 C -3.042,-1.859 -0.234,-15.885 3.037,-17.987 6.307,-20.09 36.909,-7.242 43.683,-4.906 50.457,-2.569 41.113,5.139 34.806,6.073 28.499,7.008 18.221,2.569 17.52,0 c -0.701,-2.569 1.168,-9.812 1.168,-9.812 0,0 -4.438,14.016 -9.812,13.083 C 3.957,2.414 7.708,-10.513 7.708,-10.513 7.708,-10.513 4.205,2.569 0,0"
             style="fill:#842221;fill-opacity:1;fill-rule:nonzero;stroke:none"
             id="path4515"
             inkscape:connector-curvature="0" />
        </g>
        <g
           id="g4517"
           transform="translate(112.0952,53.543)">
          <path
             d="M 0,0 C 2.196,0.439 4.186,1.981 4.831,4.074 2.953,4.7 1.037,5.242 -0.897,5.69 c -24.154,5.644 -52.438,-1.906 -70.36,-17.836 -4.177,-3.702 -7.784,-7.869 -10.652,-12.428 1.392,-0.945 3.205,-1.589 5.597,-1.589 -4.98,-1.868 -14.016,-3.737 -9.961,9.036 0,0 0.309,-2.972 2.28,-5.504 2.644,4.102 5.859,7.896 9.54,11.334 3.336,3.121 7.036,5.943 11.026,8.447 0.561,0.355 1.131,0.701 1.701,1.038 4.214,2.503 8.708,4.653 13.399,6.418 0.542,0.206 1.084,0.403 1.626,0.599 4.821,1.71 9.83,3.018 14.894,3.887 0.804,0.131 1.617,0.262 2.42,0.374 4.513,0.644 9.054,0.934 13.568,0.849 0.822,-0.018 1.644,-0.045 2.466,-0.092 C -9.11,10.008 -4.906,9.456 -0.822,8.54 1.093,8.11 2.98,7.606 4.84,7.018 4.354,8.746 2.971,10.615 0.308,12.465 10.904,12.773 15.885,0.317 0,0"
             style="fill:#842221;fill-opacity:1;fill-rule:nonzero;stroke:none"
             id="path4519"
             inkscape:connector-curvature="0" />
        </g>
        <g
           id="g4521"
           transform="translate(91.6943,91.7002)">
          <path
             d="m 0,0 c 0,-1.462 -1.186,-2.647 -2.647,-2.647 -1.463,0 -2.648,1.185 -2.648,2.647 0,1.463 1.185,2.647 2.648,2.647 C -1.186,2.647 0,1.463 0,0"
             style="fill:#ffffff;fill-opacity:1;fill-rule:nonzero;stroke:none"
             id="path4523"
             inkscape:connector-curvature="0" />
        </g>
        <g
           id="g4525"
           transform="translate(62.3364,86.3096)">
          <path
             d="m 0,0 c 0,-1.462 -1.186,-2.647 -2.647,-2.647 -1.463,0 -2.648,1.185 -2.648,2.647 0,1.463 1.185,2.647 2.648,2.647 C -1.186,2.647 0,1.463 0,0"
             style="fill:#ffffff;fill-opacity:1;fill-rule:nonzero;stroke:none"
             id="path4527"
             inkscape:connector-curvature="0" />
        </g>
        <g
           id="g4529"
           transform="translate(28.2334,91.3115)">
          <path
             d="m 0,0 c 5.393,-5.394 43.216,-3.037 45.084,-0.935 1.869,2.103 1.402,17.053 -1.868,19.156 -3.271,2.102 -4.439,-12.148 -4.439,-12.148 0,0 1.402,10.512 -3.971,10.98 -5.373,0.467 -3.27,-11.681 -3.27,-11.681 0,0 -0.468,6.308 -4.672,8.41 C 22.659,15.885 5.606,14.249 2.336,10.745 -0.935,7.241 -1.402,1.401 0,0"
             style="fill:#842221;fill-opacity:1;fill-rule:nonzero;stroke:none"
             id="path4531"
             inkscape:connector-curvature="0" />
        </g>
      </g>
    </g>
  </g>
</svg>
