<?xml version="1.0" encoding="UTF-8" standalone="no"?>
<!-- Created with Inkscape (http://www.inkscape.org/) -->

<svg
   xmlns:dc="http://purl.org/dc/elements/1.1/"
   xmlns:cc="http://creativecommons.org/ns#"
   xmlns:rdf="http://www.w3.org/1999/02/22-rdf-syntax-ns#"
   xmlns:svg="http://www.w3.org/2000/svg"
   xmlns="http://www.w3.org/2000/svg"
   xmlns:sodipodi="http://sodipodi.sourceforge.net/DTD/sodipodi-0.dtd"
   xmlns:inkscape="http://www.inkscape.org/namespaces/inkscape"
   width="52.916664mm"
   height="52.916313mm"
   viewBox="0 0 52.916664 52.916313"
   version="1.1"
   id="svg11651"
   inkscape:version="0.92.5 (2060ec1f9f, 2020-04-08)"
   sodipodi:docname="purple.svg">
  <defs
     id="defs11645">
    <clipPath
       clipPathUnits="userSpaceOnUse"
       id="clipPath4117">
      <path
         d="M 48.91,246.2 C 37.494,245.552 28.766,235.772 29.415,224.356 v 0 c 0.648,-11.414 10.428,-20.142 21.844,-19.493 v 0 c 11.415,0.647 20.143,10.428 19.494,21.843 v 0 c -0.626,11.015 -9.755,19.527 -20.65,19.528 v 0 c -0.396,0 -0.793,-0.011 -1.193,-0.034"
         id="path4115"
         inkscape:connector-curvature="0" />
    </clipPath>
    <radialGradient
       fx="0"
       fy="0"
       cx="0"
       cy="0"
       r="1"
       gradientUnits="userSpaceOnUse"
       gradientTransform="matrix(20.669292,1.1738271,1.1738271,-20.669292,50.083744,225.53165)"
       spreadMethod="pad"
       id="radialGradient4131">
      <stop
         style="stop-opacity:1;stop-color:#faffff"
         offset="0"
         id="stop4123" />
      <stop
         style="stop-opacity:1;stop-color:#faffff"
         offset="0.434318"
         id="stop4125" />
      <stop
         style="stop-opacity:1;stop-color:#faffff"
         offset="0.80364196"
         id="stop4127" />
      <stop
         style="stop-opacity:1;stop-color:#e1eded"
         offset="1"
         id="stop4129" />
    </radialGradient>
    <clipPath
       clipPathUnits="userSpaceOnUse"
       id="clipPath4101">
      <path
         d="M 0,450 H 450 V 0 H 0 Z"
         id="path4099"
         inkscape:connector-curvature="0" />
    </clipPath>
    <clipPath
       clipPathUnits="userSpaceOnUse"
       id="clipPath4077">
      <path
         d="M 102.957,251.024 C 91.543,250.376 82.814,240.596 83.463,229.18 v 0 c 0.649,-11.414 10.429,-20.143 21.843,-19.494 v 0 c 11.416,0.649 20.144,10.428 19.495,21.843 v 0 c -0.625,11.016 -9.754,19.529 -20.65,19.529 v 0 c -0.396,0 -0.794,-0.011 -1.194,-0.034"
         id="path4075"
         inkscape:connector-curvature="0" />
    </clipPath>
    <radialGradient
       fx="0"
       fy="0"
       cx="0"
       cy="0"
       r="1"
       gradientUnits="userSpaceOnUse"
       gradientTransform="matrix(20.66929,1.1738269,1.1738269,-20.66929,104.13214,230.35535)"
       spreadMethod="pad"
       id="radialGradient4091">
      <stop
         style="stop-opacity:1;stop-color:#faffff"
         offset="0"
         id="stop4083" />
      <stop
         style="stop-opacity:1;stop-color:#faffff"
         offset="0.434318"
         id="stop4085" />
      <stop
         style="stop-opacity:1;stop-color:#faffff"
         offset="0.80364196"
         id="stop4087" />
      <stop
         style="stop-opacity:1;stop-color:#e1eded"
         offset="1"
         id="stop4089" />
    </radialGradient>
    <clipPath
       clipPathUnits="userSpaceOnUse"
       id="clipPath4061">
      <path
         d="M 28.349,249.411 H 72.49 V 200.7 H 28.349 Z"
         id="path4059"
         inkscape:connector-curvature="0" />
    </clipPath>
    <clipPath
       clipPathUnits="userSpaceOnUse"
       id="clipPath4045">
      <path
         d="M 82.0191,254.712 H 126.245 V 205.999 H 82.0191 Z"
         id="path4043"
         inkscape:connector-curvature="0" />
    </clipPath>
    <clipPath
       clipPathUnits="userSpaceOnUse"
       id="clipPath3807">
      <path
         d="M 0,150 H 150 V 299.999 H 0 Z"
         id="path3805"
         inkscape:connector-curvature="0" />
    </clipPath>
    <radialGradient
       fx="0"
       fy="0"
       cx="0"
       cy="0"
       r="1"
       gradientUnits="userSpaceOnUse"
       gradientTransform="matrix(108.4005,0,0,-108.4005,75,225)"
       spreadMethod="pad"
       id="radialGradient3823">
      <stop
         style="stop-opacity:1;stop-color:#da5dfb"
         offset="0"
         id="stop3813" />
      <stop
         style="stop-opacity:1;stop-color:#da5dfb"
         offset="0.407462"
         id="stop3815" />
      <stop
         style="stop-opacity:1;stop-color:#da5dfb"
         offset="0.71802056"
         id="stop3817" />
      <stop
         style="stop-opacity:1;stop-color:#b34ccf"
         offset="0.963737"
         id="stop3819" />
      <stop
         style="stop-opacity:1;stop-color:#b34ccf"
         offset="1"
         id="stop3821" />
    </radialGradient>
  </defs>
  <sodipodi:namedview
     id="base"
     pagecolor="#ffffff"
     bordercolor="#666666"
     borderopacity="1.0"
     inkscape:pageopacity="0.0"
     inkscape:pageshadow="2"
     inkscape:zoom="0.35"
     inkscape:cx="80.000001"
     inkscape:cy="15.713633"
     inkscape:document-units="mm"
     inkscape:current-layer="layer1"
     showgrid="false"
     inkscape:window-width="3840"
     inkscape:window-height="2096"
     inkscape:window-x="0"
     inkscape:window-y="27"
     inkscape:window-maximized="1" />
  <metadata
     id="metadata11648">
    <rdf:RDF>
      <cc:Work
         rdf:about="">
        <dc:format>image/svg+xml</dc:format>
        <dc:type
           rdf:resource="http://purl.org/dc/dcmitype/StillImage" />
        <dc:title />
      </cc:Work>
    </rdf:RDF>
  </metadata>
  <g
     inkscape:label="Layer 1"
     inkscape:groupmode="layer"
     id="layer1"
     transform="translate(-87.690476,-103.47637)">
    <g
       transform="matrix(0.35277777,0,0,-0.35277777,87.690476,209.30935)"
       id="g3801">
      <g
         id="g3803"
         clip-path="url(#clipPath3807)">
        <g
           id="g3809">
          <g
             id="g3811">
            <path
               d="M 0,150 H 150 V 299.999 H 0 Z"
               style="fill:url(#radialGradient3823);stroke:none"
               id="path3825"
               inkscape:connector-curvature="0" />
          </g>
        </g>
      </g>
    </g>
    <g
       transform="matrix(0.35277777,0,0,-0.35277777,87.690476,209.30935)"
       id="g4039">
      <g
         id="g4041" />
      <g
         id="g4053">
        <g
           clip-path="url(#clipPath4045)"
           id="g4051"
           style="opacity:0.19999701">
          <g
             transform="translate(125.9849,233.397)"
             id="g4049">
            <path
               d="m 0,0 c 1.857,-13.345 -6.421,-25.525 -18.49,-27.205 -12.069,-1.679 -23.358,7.777 -25.216,21.122 -1.857,13.345 6.421,25.525 18.49,27.205 C -13.147,22.801 -1.857,13.345 0,0"
               style="fill:#6d2f7e;fill-opacity:1;fill-rule:nonzero;stroke:none"
               id="path4047"
               inkscape:connector-curvature="0" />
          </g>
        </g>
      </g>
    </g>
    <g
       transform="matrix(0.35277777,0,0,-0.35277777,87.690476,209.30935)"
       id="g4055">
      <g
         id="g4057" />
      <g
         id="g4069">
        <g
           clip-path="url(#clipPath4061)"
           id="g4067"
           style="opacity:0.19999701">
          <g
             transform="translate(72.229,228.0908)"
             id="g4065">
            <path
               d="m 0,0 c 1.857,-13.345 -6.401,-25.521 -18.446,-27.198 -12.046,-1.677 -23.316,7.782 -25.173,21.127 -1.858,13.345 6.401,25.522 18.446,27.199 C -13.127,22.804 -1.857,13.345 0,0"
               style="fill:#6d2f7e;fill-opacity:1;fill-rule:nonzero;stroke:none"
               id="path4063"
               inkscape:connector-curvature="0" />
          </g>
        </g>
      </g>
    </g>
    <g
       transform="matrix(0.35277777,0,0,-0.35277777,87.690476,209.30935)"
       id="g4071">
      <g
         id="g4073"
         clip-path="url(#clipPath4077)">
        <g
           id="g4079">
          <g
             id="g4081">
            <path
               d="M 102.957,251.024 C 91.543,250.376 82.814,240.596 83.463,229.18 v 0 c 0.649,-11.414 10.429,-20.143 21.843,-19.494 v 0 c 11.416,0.649 20.144,10.428 19.495,21.843 v 0 c -0.625,11.016 -9.754,19.529 -20.65,19.529 v 0 c -0.396,0 -0.794,-0.011 -1.194,-0.034"
               style="fill:url(#radialGradient4091);stroke:none"
               id="path4093"
               inkscape:connector-curvature="0" />
          </g>
        </g>
      </g>
    </g>
    <g
       transform="matrix(0.35277777,0,0,-0.35277777,87.690476,209.30935)"
       id="g4095">
      <g
         id="g4097"
         clip-path="url(#clipPath4101)">
        <g
           id="g4103"
           transform="translate(108.5762,229.2451)">
          <path
             d="m 0,0 c 0.387,-6.807 -4.817,-12.638 -11.624,-13.024 -6.806,-0.387 -12.637,4.817 -13.024,11.623 -0.387,6.806 4.817,12.638 11.624,13.025 C -6.218,12.01 -0.387,6.806 0,0"
             style="fill:#8b2d5c;fill-opacity:1;fill-rule:nonzero;stroke:none"
             id="path4105"
             inkscape:connector-curvature="0" />
        </g>
        <g
           id="g4107"
           transform="translate(95.6172,227.7295)">
          <path
             d="m 0,0 c 0.18,-3.162 -2.238,-5.871 -5.4,-6.051 -3.162,-0.179 -5.871,2.238 -6.051,5.401 -0.179,3.162 2.238,5.871 5.4,6.05 C -2.889,5.58 -0.18,3.162 0,0"
             style="fill:#46172e;fill-opacity:1;fill-rule:nonzero;stroke:none"
             id="path4109"
             inkscape:connector-curvature="0" />
        </g>
      </g>
    </g>
    <g
       transform="matrix(0.35277777,0,0,-0.35277777,87.690476,209.30935)"
       id="g4111">
      <g
         id="g4113"
         clip-path="url(#clipPath4117)">
        <g
           id="g4119">
          <g
             id="g4121">
            <path
               d="M 48.91,246.2 C 37.494,245.552 28.766,235.772 29.415,224.356 v 0 c 0.648,-11.414 10.428,-20.142 21.844,-19.493 v 0 c 11.415,0.647 20.143,10.428 19.494,21.843 v 0 c -0.626,11.015 -9.755,19.527 -20.65,19.528 v 0 c -0.396,0 -0.793,-0.011 -1.193,-0.034"
               style="fill:url(#radialGradient4131);stroke:none"
               id="path4133"
               inkscape:connector-curvature="0" />
          </g>
        </g>
      </g>
    </g>
    <g
       id="g4143"
       transform="matrix(0.35277777,0,0,-0.35277777,103.84555,130.31365)">
      <path
         d="m 0,0 c 0.387,-6.806 6.218,-12.01 13.024,-11.623 6.807,0.387 12.011,6.218 11.624,13.024 C 24.261,8.207 18.43,13.411 11.624,13.024 4.817,12.638 -0.386,6.807 0,0"
         style="fill:#8b2d5c;fill-opacity:1;fill-rule:nonzero;stroke:none"
         id="path4145"
         inkscape:connector-curvature="0" />
    </g>
    <g
       id="g4147"
       transform="matrix(0.35277777,0,0,-0.35277777,108.44838,130.32674)">
      <path
         d="m 0,0 c 0.18,-3.162 2.889,-5.58 6.051,-5.4 3.162,0.179 5.579,2.888 5.4,6.05 C 11.271,3.813 8.562,6.23 5.4,6.05 2.238,5.871 -0.179,3.162 0,0"
         style="fill:#46172e;fill-opacity:1;fill-rule:nonzero;stroke:none"
         id="path4149"
         inkscape:connector-curvature="0" />
    </g>
    <g
       id="g4151"
       transform="matrix(0.35277777,0,0,-0.35277777,98.550816,135.04479)">
      <path
         d="M 0,0 C 6.673,-4.488 9.207,3.426 21.73,5.129 31.564,6.467 37.63,4.085 41.052,7.396 44.474,10.705 39.98,-9.216 22.476,-11.768 4.971,-14.32 0,0 0,0"
         style="fill:#da5dfb;fill-opacity:1;fill-rule:nonzero;stroke:none"
         id="path4153"
         inkscape:connector-curvature="0" />
    </g>
    <g
       id="g4155"
       transform="matrix(0.35277777,0,0,-0.35277777,106.66901,138.46201)">
      <path
         d="M 0,0 C -4.666,-11.469 2.138,-20.217 10.497,-10.886 11.858,-21.771 17.884,-20.8 21.383,-14.19 9.525,-11.857 2.527,-4.082 0,0"
         style="fill:#fffcf8;fill-opacity:1;fill-rule:nonzero;stroke:none"
         id="path4157"
         inkscape:connector-curvature="0" />
    </g>
    <g
       id="g4159"
       transform="matrix(0.35277777,0,0,-0.35277777,96.857866,125.79954)">
      <path
         d="M 0,0 C 0.937,17.771 22.054,23.06 32.177,16.237 34.976,28.662 20.592,28.234 19.681,23.704 10.824,35.662 3.242,28.611 10.215,22.387 -1.225,21.542 -5.924,11.735 0.902,11.539 -2.144,6.888 0,0 0,0"
         style="fill:#6d2f7e;fill-opacity:1;fill-rule:nonzero;stroke:none"
         id="path4161"
         inkscape:connector-curvature="0" />
    </g>
    <g
       id="g4163"
       transform="matrix(0.35277777,0,0,-0.35277777,117.11917,120.93904)">
      <path
         d="M 0,0 C 2.567,16.501 20.874,26.692 34.182,8.368 35.432,17.2 27.986,21.45 26.145,19.593 26.286,27.389 19.871,27.219 14.789,20.7 12.63,31.286 5.143,25.993 3.226,15.175 -1.396,21.144 -4.422,9.289 0,0"
         style="fill:#6d2f7e;fill-opacity:1;fill-rule:nonzero;stroke:none"
         id="path4165"
         inkscape:connector-curvature="0" />
    </g>
    <g
       id="g4167"
       transform="matrix(0.35277777,0,0,-0.35277777,116.20448,143.37885)">
      <path
         d="m 0,0 c -3.821,-0.112 -7.647,0.456 -11.146,1.82 -3.5,1.353 -6.645,3.489 -9.196,6.184 -0.659,0.652 -1.239,1.383 -1.838,2.088 -0.549,0.752 -1.135,1.469 -1.625,2.263 -0.758,1.106 -1.414,2.282 -2.032,3.477 1.534,0.596 3.446,0.967 5.998,1.227 -10.86,5.553 -13.299,-0.444 -11.875,-7.1 1.005,1.855 1.953,3.224 3.134,4.249 0.747,-1.219 1.533,-2.413 2.426,-3.538 0.589,-0.816 1.283,-1.558 1.933,-2.323 0.707,-0.724 1.39,-1.464 2.157,-2.125 2.975,-2.727 6.557,-4.794 10.377,-5.963 3.822,-1.184 7.844,-1.476 11.741,-1.083 3.897,0.398 7.717,1.423 11.211,3.098 C 7.664,0.853 3.821,0.118 0,0"
         style="fill:#6d2f7e;fill-opacity:1;fill-rule:nonzero;stroke:none"
         id="path4169"
         inkscape:connector-curvature="0" />
    </g>
    <g
       id="g4171"
       transform="matrix(0.35277777,0,0,-0.35277777,122.32419,127.92415)">
      <path
         d="m 0,0 c 0.097,-1.715 -1.214,-3.184 -2.929,-3.282 -1.715,-0.097 -3.184,1.214 -3.281,2.929 -0.098,1.715 1.213,3.185 2.928,3.282 C -1.567,3.026 -0.098,1.715 0,0"
         style="fill:#ffffff;fill-opacity:1;fill-rule:nonzero;stroke:none"
         id="path4173"
         inkscape:connector-curvature="0" />
    </g>
    <g
       id="g4175"
       transform="matrix(0.35277777,0,0,-0.35277777,110.0235,129.03519)">
      <path
         d="m 0,0 c 0.098,-1.715 -1.213,-3.185 -2.929,-3.282 -1.715,-0.097 -3.184,1.214 -3.281,2.929 -0.098,1.715 1.213,3.184 2.929,3.282 C -1.566,3.026 -0.097,1.715 0,0"
         style="fill:#ffffff;fill-opacity:1;fill-rule:nonzero;stroke:none"
         id="path4177"
         inkscape:connector-curvature="0" />
    </g>
  </g>
</svg>
