<?xml version="1.0" encoding="UTF-8" standalone="no"?>
<!-- Created with Inkscape (http://www.inkscape.org/) -->

<svg
   width="52.916313mm"
   height="52.916313mm"
   viewBox="0 0 52.916313 52.916313"
   version="1.1"
   id="svg9471"
   inkscape:version="1.1.2 (08b2f3d93c, 2022-04-05)"
   sodipodi:docname="yellow.svg"
   xmlns:inkscape="http://www.inkscape.org/namespaces/inkscape"
   xmlns:sodipodi="http://sodipodi.sourceforge.net/DTD/sodipodi-0.dtd"
   xmlns="http://www.w3.org/2000/svg"
   xmlns:svg="http://www.w3.org/2000/svg"
   xmlns:rdf="http://www.w3.org/1999/02/22-rdf-syntax-ns#"
   xmlns:cc="http://creativecommons.org/ns#"
   xmlns:dc="http://purl.org/dc/elements/1.1/">
  <defs
     id="defs9465">
    <clipPath
       clipPathUnits="userSpaceOnUse"
       id="clipPath5057">
      <path
         d="M 0,450 H 450 V 0 H 0 Z"
         id="path5055"
         inkscape:connector-curvature="0" />
    </clipPath>
    <clipPath
       clipPathUnits="userSpaceOnUse"
       id="clipPath5069">
      <path
         d="m 201.605,216.63 h 46.939 v -25.365 h -46.939 z"
         id="path5067"
         inkscape:connector-curvature="0" />
    </clipPath>
    <clipPath
       clipPathUnits="userSpaceOnUse"
       id="clipPath5089">
      <path
         d="m 197.358,196.674 h 68.103 v -14.35 h -68.103 z"
         id="path5087"
         inkscape:connector-curvature="0" />
    </clipPath>
    <clipPath
       clipPathUnits="userSpaceOnUse"
       id="clipPath5121">
      <path
         d="m 208.435,201.094 h 15.066 v -5.828 h -15.066 z"
         id="path5119"
         inkscape:connector-curvature="0" />
    </clipPath>
    <clipPath
       clipPathUnits="userSpaceOnUse"
       id="clipPath5137">
      <path
         d="m 231.055,198.49 h 16.814 v -4.873 h -16.814 z"
         id="path5135"
         inkscape:connector-curvature="0" />
    </clipPath>
    <clipPath
       clipPathUnits="userSpaceOnUse"
       id="clipPath5161">
      <path
         d="m 215.838,236.813 h 19.314 v -5.025 h -19.314 z"
         id="path5159"
         inkscape:connector-curvature="0" />
    </clipPath>
    <clipPath
       clipPathUnits="userSpaceOnUse"
       id="clipPath5177">
      <path
         d="m 160.665,293.394 h 35.78 v -27.798 h -35.78 z"
         id="path5175"
         inkscape:connector-curvature="0" />
    </clipPath>
    <clipPath
       clipPathUnits="userSpaceOnUse"
       id="clipPath5181">
      <path
         d="m 160.665,265.596 c 7.569,18.922 29.587,25.803 35.78,24.427 -7.913,3.44 -16.858,5.849 -15.482,-1.032 -9.633,6.881 -7.913,1.72 -6.536,-2.408 -4.129,5.16 -7.913,-3.441 -6.881,-6.537 -7.569,5.161 -6.193,-1.72 -4.129,-4.473 -2.752,-2.408 -2.752,-9.977 -2.752,-9.977"
         id="path5179"
         inkscape:connector-curvature="0" />
    </clipPath>
    <radialGradient
       fx="0"
       fy="0"
       cx="0"
       cy="0"
       r="1"
       gradientUnits="userSpaceOnUse"
       gradientTransform="matrix(39.049427,0,0,-39.049427,192.48857,255.7567)"
       spreadMethod="pad"
       id="radialGradient5191">
      <stop
         style="stop-opacity:1;stop-color:#000000"
         offset="0"
         id="stop5183" />
      <stop
         style="stop-opacity:1;stop-color:#000000"
         offset="0.850194"
         id="stop5185" />
      <stop
         style="stop-opacity:1;stop-color:#000000"
         offset="0.85860956"
         id="stop5187" />
      <stop
         style="stop-opacity:1;stop-color:#fcff4a"
         offset="1"
         id="stop5189" />
    </radialGradient>
    <clipPath
       clipPathUnits="userSpaceOnUse"
       id="clipPath5213">
      <path
         d="M 239.449,172.706 H 278.44 V 154.495 H 239.449 Z"
         id="path5211"
         inkscape:connector-curvature="0" />
    </clipPath>
    <clipPath
       clipPathUnits="userSpaceOnUse"
       id="clipPath5217">
      <path
         d="m 239.449,160.551 c 12.386,-6.194 34.634,5.046 38.991,12.155 -0.459,-5.733 -4.357,-10.32 -5.734,-8.486 1.148,-6.193 -0.687,-5.963 -2.981,-2.523 -0.459,-7.11 -2.982,-9.862 -6.652,-3.67 -0.917,-3.899 -3.211,0 -3.211,0 -0.917,-4.816 -6.422,-4.128 -8.027,-1.376 -1.606,-2.981 -9.403,-0.917 -12.386,3.9"
         id="path5215"
         inkscape:connector-curvature="0" />
    </clipPath>
    <radialGradient
       fx="0"
       fy="0"
       cx="0"
       cy="0"
       r="1"
       gradientUnits="userSpaceOnUse"
       gradientTransform="matrix(35.309856,0,0,-35.309856,250.9174,188.76135)"
       spreadMethod="pad"
       id="radialGradient5227">
      <stop
         style="stop-opacity:1;stop-color:#000000"
         offset="0"
         id="stop5219" />
      <stop
         style="stop-opacity:1;stop-color:#000000"
         offset="0.869752"
         id="stop5221" />
      <stop
         style="stop-opacity:1;stop-color:#000000"
         offset="0.87706886"
         id="stop5223" />
      <stop
         style="stop-opacity:1;stop-color:#fcff4a"
         offset="1"
         id="stop5225" />
    </radialGradient>
    <clipPath
       clipPathUnits="userSpaceOnUse"
       id="clipPath5249">
      <path
         d="m 270.069,284.111 h 17.274 v -18.515 h -17.274 z"
         id="path5247"
         inkscape:connector-curvature="0" />
    </clipPath>
    <clipPath
       clipPathUnits="userSpaceOnUse"
       id="clipPath5253">
      <path
         d="m 270.068,281.422 c 11.01,-4.129 12.73,-12.041 13.762,-15.826 2.408,4.129 -0.344,7.913 -0.344,7.913 0,0 4.473,2.753 3.785,6.193 -0.688,3.44 -5.161,-3.097 -5.161,-3.097 0,0 2.409,5.849 0.688,7.225 -1.72,1.377 -6.193,-2.752 -6.193,-2.752 0,0 -3.44,2.064 -6.537,0.344"
         id="path5251"
         inkscape:connector-curvature="0" />
    </clipPath>
    <radialGradient
       fx="0"
       fy="0"
       cx="0"
       cy="0"
       r="1"
       gradientUnits="userSpaceOnUse"
       gradientTransform="matrix(18.893873,0,0,-18.893873,269.72473,268.3486)"
       spreadMethod="pad"
       id="radialGradient5263">
      <stop
         style="stop-opacity:1;stop-color:#000000"
         offset="0"
         id="stop5255" />
      <stop
         style="stop-opacity:1;stop-color:#000000"
         offset="0.653985"
         id="stop5257" />
      <stop
         style="stop-opacity:1;stop-color:#000000"
         offset="0.67342287"
         id="stop5259" />
      <stop
         style="stop-opacity:1;stop-color:#fcff4a"
         offset="1"
         id="stop5261" />
    </radialGradient>
    <clipPath
       clipPathUnits="userSpaceOnUse"
       id="clipPath5285">
      <path
         d="m 162.013,175.683 h 17.416 v -18.33 h -17.416 z"
         id="path5283"
         inkscape:connector-curvature="0" />
    </clipPath>
    <clipPath
       clipPathUnits="userSpaceOnUse"
       id="clipPath5289">
      <path
         d="m 179.429,160.909 c -11.282,3.31 -13.577,11.075 -14.884,14.774 -2.099,-4.294 0.923,-7.867 0.923,-7.867 0,0 -4.259,-3.072 -3.321,-6.453 0.939,-3.381 4.92,3.467 4.92,3.467 0,0 -1.973,-6.01 -0.156,-7.256 1.816,-1.247 5.974,3.198 5.974,3.198 0,0 3.582,-1.806 6.544,0.137"
         id="path5287"
         inkscape:connector-curvature="0" />
    </clipPath>
    <radialGradient
       fx="0"
       fy="0"
       cx="0"
       cy="0"
       r="1"
       gradientUnits="userSpaceOnUse"
       gradientTransform="matrix(-18.843063,-1.3849359,-1.3849359,18.843063,178.81413,173.97206)"
       spreadMethod="pad"
       id="radialGradient5299">
      <stop
         style="stop-opacity:1;stop-color:#000000"
         offset="0"
         id="stop5291" />
      <stop
         style="stop-opacity:1;stop-color:#000000"
         offset="0.709836"
         id="stop5293" />
      <stop
         style="stop-opacity:1;stop-color:#000000"
         offset="0.72613636"
         id="stop5295" />
      <stop
         style="stop-opacity:1;stop-color:#fcff4a"
         offset="1"
         id="stop5297" />
    </radialGradient>
    <clipPath
       clipPathUnits="userSpaceOnUse"
       id="clipPath5035">
      <path
         d="m 171.102,183.201 c 1.257,-3.086 3.015,-4.908 5.197,-5.829 v 0 c 3.736,-1.58 8.703,-0.502 14.478,1.489 v 0 c 0.28,0.092 0.56,0.194 0.849,0.306 v 0 c 1.757,0.622 3.592,1.311 5.486,2.035 v 0 c 2.733,1.051 5.595,2.158 8.55,3.18 v 0 c 6.029,2.082 12.44,3.803 18.936,3.932 v 0 c 7.956,0.159 14.155,-1.515 19.538,-3.383 v 0 c 5.613,-1.962 10.352,-4.147 15.267,-4.733 v 0 c 0.595,-0.074 1.181,-0.12 1.783,-0.139 v 0 c 1.639,-0.056 3.312,0.083 5.053,0.484 v 0 c 2.429,0.548 5.001,1.607 7.821,3.356 v 0 c 0.747,0.454 1.401,0.947 1.978,1.469 v 0 c 13.127,11.797 -15.565,37.845 -49.317,38.737 v 0 c -0.604,0.016 -1.201,0.024 -1.801,0.024 v 0 c -33.191,-0.002 -60.699,-24.035 -53.818,-40.928"
         id="path5033"
         inkscape:connector-curvature="0" />
    </clipPath>
    <linearGradient
       x1="0"
       y1="0"
       x2="1"
       y2="0"
       gradientUnits="userSpaceOnUse"
       gradientTransform="matrix(0,34.279999,34.279999,0,224.6633,186.36324)"
       spreadMethod="pad"
       id="linearGradient5047">
      <stop
         style="stop-opacity:1;stop-color:#ffee99"
         offset="0"
         id="stop5041" />
      <stop
         style="stop-opacity:1;stop-color:#ffee99"
         offset="0.00473934"
         id="stop5043" />
      <stop
         style="stop-opacity:1;stop-color:#e09334"
         offset="1"
         id="stop5045" />
    </linearGradient>
    <clipPath
       clipPathUnits="userSpaceOnUse"
       id="clipPath4979">
      <path
         d="M 0,450 H 450 V 0 H 0 Z"
         id="path4977"
         inkscape:connector-curvature="0" />
    </clipPath>
    <clipPath
       clipPathUnits="userSpaceOnUse"
       id="clipPath4999">
      <path
         d="m 216.637,229.789 h 5.956 v -4.347 h -5.956 z"
         id="path4997"
         inkscape:connector-curvature="0" />
    </clipPath>
    <clipPath
       clipPathUnits="userSpaceOnUse"
       id="clipPath5015">
      <path
         d="m 228.486,231.166 h 5.884 v -5.204 h -5.884 z"
         id="path5013"
         inkscape:connector-curvature="0" />
    </clipPath>
    <clipPath
       clipPathUnits="userSpaceOnUse"
       id="clipPath4955">
      <path
         d="m 186.834,247.759 c 0,-9.29 7.53,-16.82 16.819,-16.82 v 0 c 9.289,0 16.819,7.53 16.819,16.82 v 0 c 0,9.289 -7.53,16.819 -16.819,16.819 v 0 c -9.289,0 -16.819,-7.53 -16.819,-16.819"
         id="path4953"
         inkscape:connector-curvature="0" />
    </clipPath>
    <radialGradient
       fx="0"
       fy="0"
       cx="0"
       cy="0"
       r="1"
       gradientUnits="userSpaceOnUse"
       gradientTransform="matrix(16.819275,0,0,-16.819275,203.65263,247.7588)"
       spreadMethod="pad"
       id="radialGradient4969">
      <stop
         style="stop-opacity:1;stop-color:#faffff"
         offset="0"
         id="stop4961" />
      <stop
         style="stop-opacity:1;stop-color:#faffff"
         offset="0.434318"
         id="stop4963" />
      <stop
         style="stop-opacity:1;stop-color:#faffff"
         offset="0.80364196"
         id="stop4965" />
      <stop
         style="stop-opacity:1;stop-color:#e1eded"
         offset="1"
         id="stop4967" />
    </radialGradient>
    <clipPath
       clipPathUnits="userSpaceOnUse"
       id="clipPath4923">
      <path
         d="M 0,450 H 450 V 0 H 0 Z"
         id="path4921"
         inkscape:connector-curvature="0" />
    </clipPath>
    <clipPath
       clipPathUnits="userSpaceOnUse"
       id="clipPath4939">
      <path
         d="m 184.769,268.109 h 37.767 v -40.701 h -37.767 z"
         id="path4937"
         inkscape:connector-curvature="0" />
    </clipPath>
    <clipPath
       clipPathUnits="userSpaceOnUse"
       id="clipPath4899">
      <path
         d="m 230.584,247.759 c 0,-9.29 7.53,-16.82 16.82,-16.82 v 0 c 9.289,0 16.819,7.53 16.819,16.82 v 0 c 0,9.289 -7.53,16.819 -16.819,16.819 v 0 c -9.29,0 -16.82,-7.53 -16.82,-16.819"
         id="path4897"
         inkscape:connector-curvature="0" />
    </clipPath>
    <radialGradient
       fx="0"
       fy="0"
       cx="0"
       cy="0"
       r="1"
       gradientUnits="userSpaceOnUse"
       gradientTransform="matrix(16.8193,0,0,-16.8193,247.40338,247.7588)"
       spreadMethod="pad"
       id="radialGradient4913">
      <stop
         style="stop-opacity:1;stop-color:#faffff"
         offset="0"
         id="stop4905" />
      <stop
         style="stop-opacity:1;stop-color:#faffff"
         offset="0.434318"
         id="stop4907" />
      <stop
         style="stop-opacity:1;stop-color:#faffff"
         offset="0.80364196"
         id="stop4909" />
      <stop
         style="stop-opacity:1;stop-color:#e1eded"
         offset="1"
         id="stop4911" />
    </radialGradient>
    <clipPath
       clipPathUnits="userSpaceOnUse"
       id="clipPath4875">
      <path
         d="M 0,450 H 450 V 0 H 0 Z"
         id="path4873"
         inkscape:connector-curvature="0" />
    </clipPath>
    <clipPath
       clipPathUnits="userSpaceOnUse"
       id="clipPath4883">
      <path
         d="m 228.52,268.109 h 37.767 V 227.408 H 228.52 Z"
         id="path4881"
         inkscape:connector-curvature="0" />
    </clipPath>
    <clipPath
       clipPathUnits="userSpaceOnUse"
       id="clipPath4851">
      <path
         d="M 150,150 H 299.999 V 299.999 H 150 Z"
         id="path4849"
         inkscape:connector-curvature="0" />
    </clipPath>
    <radialGradient
       fx="0"
       fy="0"
       cx="0"
       cy="0"
       r="1"
       gradientUnits="userSpaceOnUse"
       gradientTransform="matrix(111.15225,0,0,-111.15225,225,225)"
       spreadMethod="pad"
       id="radialGradient4865">
      <stop
         style="stop-opacity:1;stop-color:#fcff4a"
         offset="0"
         id="stop4857" />
      <stop
         style="stop-opacity:1;stop-color:#fcff4a"
         offset="0.23951"
         id="stop4859" />
      <stop
         style="stop-opacity:1;stop-color:#fcff4a"
         offset="0.51449201"
         id="stop4861" />
      <stop
         style="stop-opacity:1;stop-color:#f59439"
         offset="1"
         id="stop4863" />
    </radialGradient>
  </defs>
  <sodipodi:namedview
     id="base"
     pagecolor="#ffffff"
     bordercolor="#666666"
     borderopacity="1.0"
     inkscape:pageopacity="0.0"
     inkscape:pageshadow="2"
     inkscape:zoom="2.8"
     inkscape:cx="77.142857"
     inkscape:cy="56.785714"
     inkscape:document-units="mm"
     inkscape:current-layer="layer1"
     showgrid="false"
     inkscape:window-width="1645"
     inkscape:window-height="1247"
     inkscape:window-x="1383"
     inkscape:window-y="713"
     inkscape:window-maximized="0"
     inkscape:pagecheckerboard="0" />
  <metadata
     id="metadata9468">
    <rdf:RDF>
      <cc:Work
         rdf:about="">
        <dc:format>image/svg+xml</dc:format>
        <dc:type
           rdf:resource="http://purl.org/dc/dcmitype/StillImage" />
        <dc:title />
      </cc:Work>
    </rdf:RDF>
  </metadata>
  <g
     inkscape:label="Layer 1"
     inkscape:groupmode="layer"
     id="layer1"
     transform="translate(-90.714467,-121.61923)">
    <g
       transform="matrix(0.35277777,0,0,-0.35277777,37.797802,227.45221)"
       id="g4845">
      <g
         id="g4847"
         clip-path="url(#clipPath4851)">
        <g
           id="g4853">
          <g
             id="g4855">
            <path
               d="M 150,150 H 299.999 V 299.999 H 150 Z"
               style="fill:url(#radialGradient4865);stroke:none"
               id="path4867"
               inkscape:connector-curvature="0" />
          </g>
        </g>
      </g>
    </g>
    <g
       transform="matrix(0.35277777,0,0,-0.35277777,37.797802,227.45221)"
       id="g4869">
      <g
         id="g4871"
         clip-path="url(#clipPath4875)">
        <g
           id="g4877">
          <g
             id="g4879" />
          <g
             id="g4891">
            <g
               clip-path="url(#clipPath4883)"
               id="g4889"
               style="opacity:0.199997">
              <g
                 transform="translate(247.4033,227.4082)"
                 id="g4887">
                <path
                   d="m 0,0 c -10.412,0 -18.884,9.129 -18.884,20.351 0,11.221 8.472,20.35 18.884,20.35 10.412,0 18.884,-9.129 18.884,-20.35 C 18.884,9.129 10.412,0 0,0"
                   style="fill:#9e3737;fill-opacity:1;fill-rule:nonzero;stroke:none"
                   id="path4885"
                   inkscape:connector-curvature="0" />
              </g>
            </g>
          </g>
        </g>
      </g>
    </g>
    <g
       transform="matrix(0.35277777,0,0,-0.35277777,37.797802,227.45221)"
       id="g4893">
      <g
         id="g4895"
         clip-path="url(#clipPath4899)">
        <g
           id="g4901">
          <g
             id="g4903">
            <path
               d="m 230.584,247.759 c 0,-9.29 7.53,-16.82 16.82,-16.82 v 0 c 9.289,0 16.819,7.53 16.819,16.82 v 0 c 0,9.289 -7.53,16.819 -16.819,16.819 v 0 c -9.29,0 -16.82,-7.53 -16.82,-16.819"
               style="fill:url(#radialGradient4913);stroke:none"
               id="path4915"
               inkscape:connector-curvature="0" />
          </g>
        </g>
      </g>
    </g>
    <g
       transform="matrix(0.35277777,0,0,-0.35277777,37.797802,227.45221)"
       id="g4917">
      <g
         id="g4919"
         clip-path="url(#clipPath4923)">
        <g
           id="g4925"
           transform="translate(251.2217,246.9331)">
          <path
             d="m 0,0 c 0,-5.642 -4.574,-10.215 -10.216,-10.215 -5.641,0 -10.216,4.573 -10.216,10.215 0,5.642 4.575,10.216 10.216,10.216 C -4.574,10.216 0,5.642 0,0"
             style="fill:#632fff;fill-opacity:1;fill-rule:nonzero;stroke:none"
             id="path4927"
             inkscape:connector-curvature="0" />
        </g>
        <g
           id="g4929"
           transform="translate(240.0771,246.314)">
          <path
             d="m 0,0 c 0,-2.564 -2.079,-4.643 -4.644,-4.643 -2.564,0 -4.643,2.079 -4.643,4.643 0,2.565 2.079,4.644 4.643,4.644 C -2.079,4.644 0,2.565 0,0"
             style="fill:#4420b0;fill-opacity:1;fill-rule:nonzero;stroke:none"
             id="path4931"
             inkscape:connector-curvature="0" />
        </g>
        <g
           id="g4933">
          <g
             id="g4935" />
          <g
             id="g4947">
            <g
               clip-path="url(#clipPath4939)"
               id="g4945"
               style="opacity:0.199997">
              <g
                 transform="translate(203.6523,227.4082)"
                 id="g4943">
                <path
                   d="m 0,0 c -10.412,0 -18.883,9.129 -18.883,20.351 0,11.221 8.471,20.35 18.883,20.35 10.413,0 18.884,-9.129 18.884,-20.35 C 18.884,9.129 10.413,0 0,0"
                   style="fill:#9e3737;fill-opacity:1;fill-rule:nonzero;stroke:none"
                   id="path4941"
                   inkscape:connector-curvature="0" />
              </g>
            </g>
          </g>
        </g>
      </g>
    </g>
    <g
       transform="matrix(0.35277777,0,0,-0.35277777,37.797802,227.45221)"
       id="g4949">
      <g
         id="g4951"
         clip-path="url(#clipPath4955)">
        <g
           id="g4957">
          <g
             id="g4959">
            <path
               d="m 186.834,247.759 c 0,-9.29 7.53,-16.82 16.819,-16.82 v 0 c 9.289,0 16.819,7.53 16.819,16.82 v 0 c 0,9.289 -7.53,16.819 -16.819,16.819 v 0 c -9.289,0 -16.819,-7.53 -16.819,-16.819"
               style="fill:url(#radialGradient4969);stroke:none"
               id="path4971"
               inkscape:connector-curvature="0" />
          </g>
        </g>
      </g>
    </g>
    <g
       transform="matrix(0.35277777,0,0,-0.35277777,37.797802,227.45221)"
       id="g4973">
      <g
         id="g4975"
         clip-path="url(#clipPath4979)">
        <g
           id="g4981"
           transform="translate(199.835,246.9331)">
          <path
             d="m 0,0 c 0,-5.642 4.573,-10.215 10.215,-10.215 5.642,0 10.216,4.573 10.216,10.215 0,5.642 -4.574,10.216 -10.216,10.216 C 4.573,10.216 0,5.642 0,0"
             style="fill:#632fff;fill-opacity:1;fill-rule:nonzero;stroke:none"
             id="path4983"
             inkscape:connector-curvature="0" />
        </g>
        <g
           id="g4985"
           transform="translate(210.979,246.314)">
          <path
             d="m 0,0 c 0,-2.564 2.079,-4.643 4.643,-4.643 2.565,0 4.644,2.079 4.644,4.643 0,2.565 -2.079,4.644 -4.644,4.644 C 2.079,4.644 0,2.565 0,0"
             style="fill:#4420b0;fill-opacity:1;fill-rule:nonzero;stroke:none"
             id="path4987"
             inkscape:connector-curvature="0" />
        </g>
        <g
           id="g4989"
           transform="translate(234.1514,228.5298)">
          <path
             d="m 0,0 c -1.373,-1.156 -3.409,-2.04 -5.663,-2.566 -1.909,-0.448 -3.963,-0.637 -5.897,-0.523 -2.16,0.123 -4.159,0.629 -5.621,1.586 -1.204,0.777 -2.037,1.864 -2.277,3.292 -0.142,0.836 0.298,1.689 1.145,2.487 3.839,3.623 15.984,6.162 19.314,1.394 C 1.249,5.312 1.448,4.913 1.593,4.473 2.153,2.738 1.452,1.214 0,0"
             style="fill:#b04b72;fill-opacity:1;fill-rule:nonzero;stroke:none"
             id="path4991"
             inkscape:connector-curvature="0" />
        </g>
        <g
           id="g4993">
          <g
             id="g4995" />
          <g
             id="g5007">
            <g
               clip-path="url(#clipPath4999)"
               id="g5005"
               style="opacity:0.5">
              <g
                 transform="translate(222.5933,225.4419)"
                 id="g5003">
                <path
                   d="M 0,0 C -2.163,0.124 -4.16,0.627 -5.622,1.585 -7.437,6.232 -1.329,4.548 0,0"
                   style="fill:#7b3e1d;fill-opacity:1;fill-rule:nonzero;stroke:none"
                   id="path5001"
                   inkscape:connector-curvature="0" />
              </g>
            </g>
          </g>
        </g>
        <g
           id="g5009">
          <g
             id="g5011" />
          <g
             id="g5023">
            <g
               clip-path="url(#clipPath5015)"
               id="g5021"
               style="opacity:0.5">
              <g
                 transform="translate(234.1504,228.5293)"
                 id="g5019">
                <path
                   d="M 0,0 C -1.37,-1.156 -3.409,-2.039 -5.663,-2.567 -5.771,3.063 1.568,4.441 0,0"
                   style="fill:#7b3e1d;fill-opacity:1;fill-rule:nonzero;stroke:none"
                   id="path5017"
                   inkscape:connector-curvature="0" />
              </g>
            </g>
          </g>
        </g>
        <g
           id="g5025"
           transform="translate(226.25,257.355)">
          <path
             d="m 0,0 c 8.668,18.367 20.431,20.431 16.098,9.906 12.795,12.382 19.811,9.493 15.89,3.095 C 43.957,15.891 44.164,5.572 27.654,3.508 11.145,1.445 3.303,-15.684 -0.619,-7.842 c -6.81,-5.985 -8.461,1.651 -17.541,7.429 -9.081,5.779 -17.748,-1.238 -21.05,5.16 -3.302,6.397 12.176,6.191 12.176,6.191 0,0 -4.541,5.778 1.032,6.397 5.572,0.62 11.35,-8.874 11.35,-8.874 0,0 -0.619,16.304 14.652,-8.461"
             style="fill:#9e3737;fill-opacity:1;fill-rule:nonzero;stroke:none"
             id="path5027"
             inkscape:connector-curvature="0" />
        </g>
      </g>
    </g>
    <g
       transform="matrix(0.35277777,0,0,-0.35277777,37.797802,227.45221)"
       id="g5029">
      <g
         id="g5031"
         clip-path="url(#clipPath5035)">
        <g
           id="g5037">
          <g
             id="g5039">
            <path
               d="m 171.102,183.201 c 1.257,-3.086 3.015,-4.908 5.197,-5.829 v 0 c 3.736,-1.58 8.703,-0.502 14.478,1.489 v 0 c 0.28,0.092 0.56,0.194 0.849,0.306 v 0 c 1.757,0.622 3.592,1.311 5.486,2.035 v 0 c 2.733,1.051 5.595,2.158 8.55,3.18 v 0 c 6.029,2.082 12.44,3.803 18.936,3.932 v 0 c 7.956,0.159 14.155,-1.515 19.538,-3.383 v 0 c 5.613,-1.962 10.352,-4.147 15.267,-4.733 v 0 c 0.595,-0.074 1.181,-0.12 1.783,-0.139 v 0 c 1.639,-0.056 3.312,0.083 5.053,0.484 v 0 c 2.429,0.548 5.001,1.607 7.821,3.356 v 0 c 0.747,0.454 1.401,0.947 1.978,1.469 v 0 c 13.127,11.797 -15.565,37.845 -49.317,38.737 v 0 c -0.604,0.016 -1.201,0.024 -1.801,0.024 v 0 c -33.191,-0.002 -60.699,-24.035 -53.818,-40.928"
               style="fill:url(#linearGradient5047);stroke:none"
               id="path5049"
               inkscape:connector-curvature="0" />
          </g>
        </g>
      </g>
    </g>
    <g
       transform="matrix(0.35277777,0,0,-0.35277777,37.797802,227.45221)"
       id="g5051">
      <g
         id="g5053"
         clip-path="url(#clipPath5057)">
        <g
           id="g5059"
           transform="translate(274.6074,187.0488)">
          <path
             d="m 0,0 c -0.562,-0.463 -1.197,-0.9 -1.924,-1.305 -2.74,-1.551 -5.241,-2.493 -7.602,-2.979 -1.693,-0.356 -3.319,-0.48 -4.912,-0.43 -0.586,0.017 -1.156,0.058 -1.734,0.124 -4.779,0.52 -9.386,2.46 -14.842,4.201 -5.233,1.66 -11.259,3.146 -18.994,3.005 -6.315,-0.115 -12.548,-1.642 -18.409,-3.491 -2.872,-0.908 -5.654,-1.891 -8.312,-2.823 -1.841,-0.645 -3.624,-1.255 -5.333,-1.809 -0.28,-0.098 -0.553,-0.189 -0.825,-0.272 -5.613,-1.766 -10.443,-2.724 -14.075,-1.321 -2.121,0.818 -3.83,2.436 -5.052,5.176 -6.81,15.272 21.025,37.114 54.07,36.321 C -15.131,33.605 12.762,10.475 0,0"
             style="fill:#532938;fill-opacity:1;fill-rule:nonzero;stroke:none"
             id="path5061"
             inkscape:connector-curvature="0" />
        </g>
        <g
           id="g5063">
          <g
             id="g5065" />
          <g
             id="g5077">
            <g
               clip-path="url(#clipPath5069)"
               id="g5075"
               style="opacity:0.600006">
              <g
                 transform="translate(201.6919,192.3477)"
                 id="g5073">
                <path
                   d="m 0,0 c -1.444,20.019 15.443,26.317 22.908,23.733 2.682,-0.928 3.073,-3.194 2.888,-4.747 -0.347,-2.933 -3.675,-5.69 -1.65,-8.255 3.096,-3.92 9.286,-1.444 9.286,2.683 0,1.929 -2.927,3.914 -2.889,6.089 0.043,2.479 3.265,5.021 7.223,4.746 C 47.521,23.571 48.084,7.636 45.608,2.271 43.132,-3.095 18.986,-0.412 18.986,-0.412 Z"
                   style="fill:#532938;fill-opacity:1;fill-rule:nonzero;stroke:none"
                   id="path5071"
                   inkscape:connector-curvature="0" />
              </g>
            </g>
          </g>
        </g>
        <g
           id="g5079"
           transform="translate(265.4609,185.9502)">
          <path
             d="m 0,0 -0.38,-3.186 c -1.692,-0.355 -3.318,-0.479 -4.911,-0.429 -0.587,0.016 -1.156,0.057 -1.734,0.124 -4.78,0.519 -9.386,2.46 -14.842,4.201 -5.234,1.659 -11.26,3.145 -18.994,3.005 C -47.177,3.6 -53.409,2.072 -59.27,0.224 -62.143,-0.685 -64.924,-1.667 -67.583,-2.6 l -0.52,2.188 c 1.395,4.49 3.228,7.825 5.325,10.227 2.715,3.129 5.869,4.681 9.039,5.16 0.008,0.007 0.016,0.007 0.025,0.007 4.218,0.628 8.461,-0.651 11.755,-2.673 2.195,-1.346 3.962,-3.022 5.019,-4.673 0.825,0.776 1.675,1.445 2.534,2.006 5.25,3.516 10.995,3.442 16.254,1.84 0.743,-0.222 1.477,-0.478 2.195,-0.758 C -7.033,7.24 0,0 0,0"
             style="fill:#fa5197;fill-opacity:1;fill-rule:nonzero;stroke:none"
             id="path5081"
             inkscape:connector-curvature="0" />
        </g>
        <g
           id="g5083">
          <g
             id="g5085" />
          <g
             id="g5097">
            <g
               clip-path="url(#clipPath5089)"
               id="g5095"
               style="opacity:0.300003">
              <g
                 transform="translate(265.4609,185.9502)"
                 id="g5093">
                <path
                   d="m 0,0 -0.38,-3.186 c -1.692,-0.355 -3.318,-0.479 -4.911,-0.429 -0.587,0.016 -1.156,0.057 -1.734,0.124 -4.78,0.519 -9.386,2.46 -14.842,4.201 -5.234,1.659 -11.26,3.145 -18.994,3.005 C -47.177,3.6 -53.409,2.072 -59.27,0.224 -62.143,-0.685 -64.924,-1.667 -67.583,-2.6 l -0.52,2.188 c 1.395,4.49 3.228,7.825 5.325,10.227 -2.221,-5.622 17.343,-4.474 24.186,-4.721 7.1,-0.265 32.434,-0.149 22.635,5.63 C -7.033,7.24 0,0 0,0"
                   style="fill:#b0396a;fill-opacity:1;fill-rule:nonzero;stroke:none"
                   id="path5091"
                   inkscape:connector-curvature="0" />
              </g>
            </g>
          </g>
        </g>
        <g
           id="g5099"
           transform="translate(191.7202,181.2695)">
          <path
             d="m 0,0 c -5.613,-1.766 -10.442,-2.724 -14.075,-1.32 0.562,2.74 2.13,7.305 6.299,7.446 C -3.756,6.266 -1.23,2.493 0,0"
             style="fill:#fffcf8;fill-opacity:1;fill-rule:nonzero;stroke:none"
             id="path5101"
             inkscape:connector-curvature="0" />
        </g>
        <g
           id="g5103"
           transform="translate(206.1909,186.1738)">
          <path
             d="m 0,0 c -4.854,-1.536 -9.46,-3.286 -13.645,-4.632 0.115,3.236 1.073,8.594 6.257,8.742 C -3.863,4.21 -1.502,2.171 0,0"
             style="fill:#fffcf8;fill-opacity:1;fill-rule:nonzero;stroke:none"
             id="path5105"
             inkscape:connector-curvature="0" />
        </g>
        <g
           id="g5107"
           transform="translate(258.4355,182.459)">
          <path
             d="m 0,0 c -4.779,0.52 -9.386,2.46 -14.842,4.201 2.575,2.469 6.455,5.267 9.898,4.037 C -1.659,7.065 -0.445,3.153 0,0"
             style="fill:#fffcf8;fill-opacity:1;fill-rule:nonzero;stroke:none"
             id="path5109"
             inkscape:connector-curvature="0" />
        </g>
        <g
           id="g5111"
           transform="translate(274.6074,187.0488)">
          <path
             d="m 0,0 c -0.562,-0.463 -1.197,-0.9 -1.924,-1.305 -4.696,-2.658 -8.7,-3.533 -12.514,-3.409 1.395,3.311 3.673,7.471 6.53,8.155 C -5.292,4.069 -2.312,2.104 0,0"
             style="fill:#fffcf8;fill-opacity:1;fill-rule:nonzero;stroke:none"
             id="path5113"
             inkscape:connector-curvature="0" />
        </g>
        <g
           id="g5115">
          <g
             id="g5117" />
          <g
             id="g5129">
            <g
               clip-path="url(#clipPath5121)"
               id="g5127"
               style="opacity:0.399994">
              <g
                 transform="translate(223.5015,198.2588)"
                 id="g5125">
                <path
                   d="m 0,0 c -0.223,-0.313 -0.562,-0.652 -1.032,-1.023 -5.902,-4.698 -20.538,0.015 -10.748,3.689 0.009,0.008 0.017,0.008 0.025,0.008 C -7.537,3.302 -3.293,2.022 0,0"
                   style="fill:#fa5197;fill-opacity:1;fill-rule:nonzero;stroke:none"
                   id="path5123"
                   inkscape:connector-curvature="0" />
              </g>
            </g>
          </g>
        </g>
        <g
           id="g5131">
          <g
             id="g5133" />
          <g
             id="g5145">
            <g
               clip-path="url(#clipPath5137)"
               id="g5143"
               style="opacity:0.399994">
              <g
                 transform="translate(231.0547,195.5918)"
                 id="g5141">
                <path
                   d="M 0,0 C 5.25,3.517 10.995,3.442 16.254,1.841 16.271,1.824 16.295,1.8 16.312,1.775 20.142,-2.881 0.834,-2.872 0,0"
                   style="fill:#fa5197;fill-opacity:1;fill-rule:nonzero;stroke:none"
                   id="path5139"
                   inkscape:connector-curvature="0" />
              </g>
            </g>
          </g>
        </g>
        <g
           id="g5147"
           transform="translate(241.7344,247.7588)">
          <path
             d="m 0,0 c 0,-1.042 -0.845,-1.887 -1.888,-1.887 -1.042,0 -1.886,0.845 -1.886,1.887 0,1.042 0.844,1.887 1.886,1.887 C -0.845,1.887 0,1.042 0,0"
             style="fill:#ffffff;fill-opacity:1;fill-rule:nonzero;stroke:none"
             id="path5149"
             inkscape:connector-curvature="0" />
        </g>
        <g
           id="g5151"
           transform="translate(213.7524,249.1348)">
          <path
             d="m 0,0 c 0,-1.042 -0.845,-1.887 -1.887,-1.887 -1.043,0 -1.887,0.845 -1.887,1.887 0,1.042 0.844,1.887 1.887,1.887 C -0.845,1.887 0,1.042 0,0"
             style="fill:#ffffff;fill-opacity:1;fill-rule:nonzero;stroke:none"
             id="path5153"
             inkscape:connector-curvature="0" />
        </g>
        <g
           id="g5155">
          <g
             id="g5157" />
          <g
             id="g5169">
            <g
               clip-path="url(#clipPath5161)"
               id="g5167"
               style="opacity:0.600006">
              <g
                 transform="translate(235.1523,234.1997)"
                 id="g5165">
                <path
                   d="M 0,0 C -0.192,-0.166 -0.478,-0.324 -0.863,-0.485 -5.632,-2.463 -18.433,-3.172 -19.314,-1.394 -15.475,2.229 -3.33,4.768 0,0"
                   style="fill:#b04b72;fill-opacity:1;fill-rule:nonzero;stroke:none"
                   id="path5163"
                   inkscape:connector-curvature="0" />
              </g>
            </g>
          </g>
        </g>
        <g
           id="g5171">
          <g
             id="g5173" />
          <g
             id="g5205">
            <g
               clip-path="url(#clipPath5177)"
               id="g5203"
               style="opacity:0.300003">
              <g
                 id="g5201">
                <g
                   clip-path="url(#clipPath5181)"
                   id="g5199">
                  <g
                     id="g5197">
                    <g
                       id="g5195">
                      <path
                         d="m 160.665,265.596 c 7.569,18.922 29.587,25.803 35.78,24.427 -7.913,3.44 -16.858,5.849 -15.482,-1.032 -9.633,6.881 -7.913,1.72 -6.536,-2.408 -4.129,5.16 -7.913,-3.441 -6.881,-6.537 -7.569,5.161 -6.193,-1.72 -4.129,-4.473 -2.752,-2.408 -2.752,-9.977 -2.752,-9.977"
                         style="fill:url(#radialGradient5191);stroke:none"
                         id="path5193"
                         inkscape:connector-curvature="0" />
                    </g>
                  </g>
                </g>
              </g>
            </g>
          </g>
        </g>
        <g
           id="g5207">
          <g
             id="g5209" />
          <g
             id="g5241">
            <g
               clip-path="url(#clipPath5213)"
               id="g5239"
               style="opacity:0.300003">
              <g
                 id="g5237">
                <g
                   clip-path="url(#clipPath5217)"
                   id="g5235">
                  <g
                     id="g5233">
                    <g
                       id="g5231">
                      <path
                         d="m 239.449,160.551 c 12.386,-6.194 34.634,5.046 38.991,12.155 -0.459,-5.733 -4.357,-10.32 -5.734,-8.486 1.148,-6.193 -0.687,-5.963 -2.981,-2.523 -0.459,-7.11 -2.982,-9.862 -6.652,-3.67 -0.917,-3.899 -3.211,0 -3.211,0 -0.917,-4.816 -6.422,-4.128 -8.027,-1.376 -1.606,-2.981 -9.403,-0.917 -12.386,3.9"
                         style="fill:url(#radialGradient5227);stroke:none"
                         id="path5229"
                         inkscape:connector-curvature="0" />
                    </g>
                  </g>
                </g>
              </g>
            </g>
          </g>
        </g>
        <g
           id="g5243">
          <g
             id="g5245" />
          <g
             id="g5277">
            <g
               clip-path="url(#clipPath5249)"
               id="g5275"
               style="opacity:0.399994">
              <g
                 id="g5273">
                <g
                   clip-path="url(#clipPath5253)"
                   id="g5271">
                  <g
                     id="g5269">
                    <g
                       id="g5267">
                      <path
                         d="m 270.068,281.422 c 11.01,-4.129 12.73,-12.041 13.762,-15.826 2.408,4.129 -0.344,7.913 -0.344,7.913 0,0 4.473,2.753 3.785,6.193 -0.688,3.44 -5.161,-3.097 -5.161,-3.097 0,0 2.409,5.849 0.688,7.225 -1.72,1.377 -6.193,-2.752 -6.193,-2.752 0,0 -3.44,2.064 -6.537,0.344"
                         style="fill:url(#radialGradient5263);stroke:none"
                         id="path5265"
                         inkscape:connector-curvature="0" />
                    </g>
                  </g>
                </g>
              </g>
            </g>
          </g>
        </g>
        <g
           id="g5279">
          <g
             id="g5281" />
          <g
             id="g5313">
            <g
               clip-path="url(#clipPath5285)"
               id="g5311"
               style="opacity:0.300003">
              <g
                 id="g5309">
                <g
                   clip-path="url(#clipPath5289)"
                   id="g5307">
                  <g
                     id="g5305">
                    <g
                       id="g5303">
                      <path
                         d="m 179.429,160.909 c -11.282,3.31 -13.577,11.075 -14.884,14.774 -2.099,-4.294 0.923,-7.867 0.923,-7.867 0,0 -4.259,-3.072 -3.321,-6.453 0.939,-3.381 4.92,3.467 4.92,3.467 0,0 -1.973,-6.01 -0.156,-7.256 1.816,-1.247 5.974,3.198 5.974,3.198 0,0 3.582,-1.806 6.544,0.137"
                         style="fill:url(#radialGradient5299);stroke:none"
                         id="path5301"
                         inkscape:connector-curvature="0" />
                    </g>
                  </g>
                </g>
              </g>
            </g>
          </g>
        </g>
      </g>
    </g>
  </g>
</svg>
